<svg width="11" height="9" viewBox="0 0 11 9" fill="none" xmlns="http://www.w3.org/2000/svg">
<path d="M10.0274 2.98434L7.96406 0.677197C7.55499 0.260812 6.89121 0.260812 6.47957 0.679815C6.34836 0.813373 6.26088 0.973118 6.21457 1.14072C5.80293 0.821229 5.21119 0.852654 4.83299 1.23761C4.70178 1.37117 4.6143 1.53092 4.56799 1.69852C4.15635 1.37903 3.56461 1.41045 3.18641 1.79541C3.05777 1.92635 2.97029 2.08086 2.92398 2.24584L1.94633 1.25856C1.53726 0.842179 0.873478 0.842179 0.461833 1.26118C0.0527613 1.67757 0.0527613 2.35321 0.461833 2.7696L4.19751 6.57467L1.98235 6.92821C1.38289 7.01463 0.932652 7.54624 0.932652 8.16165C0.932652 8.62255 1.30313 8.99966 1.75594 8.99966H6.93238C7.73766 8.99966 8.49663 8.68017 9.06778 8.0988L9.93224 7.21889C10.5008 6.64014 10.8147 5.86761 10.8147 5.04793C10.8121 4.28587 10.5317 3.55261 10.0274 2.98434ZM9.5386 6.82608L8.67415 7.70598C8.20848 8.17998 7.58844 8.44186 6.92723 8.44186H1.75594C1.60415 8.44186 1.48065 8.31616 1.48065 8.16165C1.48065 7.82121 1.73021 7.53053 2.06468 7.48077L4.81755 7.04082C4.92046 7.0251 5.00279 6.95178 5.03624 6.85226C5.06711 6.75275 5.04138 6.64276 4.96935 6.56944L0.850323 2.37678C0.654792 2.17775 0.654792 1.85564 0.852896 1.654C0.950662 1.55449 1.0793 1.50473 1.20537 1.50473C1.33401 1.50473 1.46007 1.55449 1.55784 1.654L4.303 4.44823C4.41105 4.55822 4.58343 4.55822 4.69148 4.44823C4.74551 4.39324 4.77124 4.32253 4.77124 4.2492C4.77124 4.17588 4.74551 4.10517 4.69148 4.05018L3.56975 2.90839C3.37422 2.70936 3.37422 2.38726 3.57233 2.18561C3.76786 1.98658 4.08431 1.98658 4.27984 2.18561L5.40157 3.3274C5.50963 3.43738 5.68201 3.43738 5.79006 3.3274C5.84409 3.2724 5.86982 3.20169 5.86982 3.12837C5.86982 3.05504 5.84409 2.98434 5.79006 2.92934L5.21633 2.34536C5.0208 2.14633 5.0208 1.82422 5.2189 1.62257C5.41444 1.42355 5.73089 1.42355 5.92642 1.62257L6.50272 2.20918C6.61078 2.31393 6.78058 2.31131 6.88607 2.20394C6.99412 2.09395 6.99412 1.9185 6.88607 1.80851L6.86291 1.78494C6.76772 1.68804 6.71626 1.55972 6.71626 1.42617C6.71626 1.29261 6.76772 1.16429 6.86548 1.06477C7.06102 0.865748 7.37747 0.868367 7.56271 1.0543L9.61836 3.35358C10.0326 3.81711 10.259 4.41681 10.259 5.04269C10.2616 5.72095 10.0069 6.35208 9.5386 6.82608Z" fill="#1C1C1C"/>
</svg>
